# Blender 5.1.1
# www.blender.org
mtllib RPD_Signobj.mtl
o rpd_sign_0.001
v 8.932127 9.370910 39.533978
v 8.154910 10.081557 39.533978
v 8.968260 9.577103 39.533978
v 8.151105 10.321478 39.533978
v 8.151014 8.894159 39.533978
v 8.586873 9.577389 39.533981
v 8.934818 9.846307 39.533978
v 7.614626 10.322522 39.533981
v 7.872408 8.892837 39.533981
v 7.614626 8.893016 39.533978
v 8.154840 9.133972 39.533978
v 8.426117 8.922348 39.533981
v 8.697338 9.044033 39.533978
v 8.537640 9.864050 39.533978
v 8.367998 10.030250 39.533978
v 7.996490 10.083310 39.533978
v 7.996490 9.132337 39.533981
v 8.369288 9.184342 39.533978
v 8.537786 9.351113 39.533978
v 8.799233 10.082829 39.533981
v 8.425098 10.294837 39.533981
v 8.152190 9.155857 39.440174
v 8.152190 9.155857 39.533978
v 8.956019 9.853381 39.440174
v 8.956019 9.853381 39.533978
v 8.990407 9.576550 39.440174
v 8.990407 9.576550 39.533978
v 8.952845 9.362195 39.533978
v 8.952845 9.362195 39.440174
v 8.711692 9.026458 39.440174
v 8.711692 9.026458 39.533978
v 8.431864 8.900911 39.533981
v 8.431864 8.900911 39.440174
v 8.152186 8.872253 39.440174
v 8.152186 8.872253 39.533978
v 7.872452 8.870926 39.533981
v 7.872452 8.870926 39.440174
v 8.152189 10.343387 39.440174
v 8.152189 10.343387 39.533978
v 8.431852 10.316195 39.533981
v 8.815257 10.098933 39.440174
v 8.815257 10.098933 39.533981
v 8.431852 10.316195 39.440174
v 8.152190 10.059675 39.440174
v 8.152190 10.059675 39.533978
v 8.356987 10.010364 39.440174
v 8.356987 10.010364 39.533978
v 8.517244 9.853357 39.440174
v 8.517244 9.853357 39.533978
v 8.564558 9.577874 39.533981
v 8.564558 9.577874 39.440174
v 8.517752 9.362112 39.533978
v 8.517752 9.362112 39.440174
v 8.358265 9.204261 39.533978
v 8.358265 9.204261 39.440174
v 7.592715 8.871120 39.440174
v 7.592715 10.344476 39.440174
v 7.592715 10.344476 39.533981
v 7.592715 8.871120 39.533978
v 8.018401 9.154475 39.533981
v 8.018401 10.061155 39.440174
v 8.018401 9.154475 39.440174
v 8.018401 10.061155 39.533978
v 5.485794 8.892636 39.533978
v 5.485794 10.322962 39.533981
v 5.868451 8.892636 39.533978
v 5.868451 9.402260 39.533978
v 6.578738 9.620026 39.533981
v 6.011003 10.323004 39.533981
v 6.307917 9.867835 39.533978
v 6.191186 10.318526 39.533978
v 6.426382 9.484156 39.533981
v 6.190453 9.408330 39.533978
v 6.014474 10.081924 39.533978
v 6.207749 10.024258 39.533978
v 6.197026 9.694356 39.533978
v 5.868451 10.082801 39.533978
v 6.426871 10.261031 39.533978
v 6.014260 9.643695 39.533981
v 5.868451 9.642819 39.533981
v 6.616172 10.087869 39.533981
v 6.657677 9.874351 39.533978
v 6.194036 10.339978 39.440174
v 6.194036 10.339978 39.533978
v 6.011270 10.344520 39.440174
v 6.011270 10.344520 39.533981
v 6.011270 10.060428 39.533978
v 6.011270 10.060428 39.440174
v 6.194023 9.386878 39.533978
v 6.194023 9.386878 39.440174
v 6.011270 9.665194 39.440174
v 6.011270 9.665194 39.533981
v 6.437326 10.280627 39.440174
v 6.437326 10.280627 39.533978
v 6.635937 10.098948 39.533981
v 6.635937 10.098948 39.440174
v 6.679830 9.873142 39.440174
v 6.679830 9.873142 39.533978
v 6.597516 9.607943 39.440174
v 6.597516 9.607943 39.533981
v 6.437303 9.465066 39.440174
v 6.437303 9.465066 39.533981
v 6.193940 10.005925 39.533978
v 5.464278 10.344476 39.440174
v 5.464278 10.344476 39.533981
v 5.889967 9.664466 39.533981
v 5.889967 10.061155 39.440174
v 5.889967 9.664466 39.440174
v 5.889967 10.061155 39.533978
v 5.464278 8.871120 39.440174
v 5.464278 8.871120 39.533978
v 5.889967 8.871120 39.440174
v 5.889967 9.381145 39.440174
v 5.889967 8.871120 39.533978
v 5.889967 9.381145 39.533978
v 6.183336 9.712889 39.440174
v 6.282374 9.867825 39.533978
v 6.183336 9.712889 39.533978
v 3.639910 9.437791 39.533978
v 3.639910 8.871120 39.533978
v 3.639910 9.437791 39.440174
v 3.639910 8.871120 39.440174
v 3.214214 8.871120 39.533978
v 3.214214 8.871120 39.440174
v 3.639910 9.721135 39.533978
v 3.639910 10.061155 39.440174
v 3.639910 10.061155 39.533978
v 3.639910 9.721135 39.440174
v 4.142553 9.521932 39.533978
v 4.673717 8.871120 39.440174
v 4.142553 9.521932 39.440174
v 4.673717 8.871120 39.533978
v 4.214772 8.871120 39.533978
v 4.214772 8.871120 39.440174
v 3.770085 9.437791 39.440174
v 3.770085 9.437791 39.533978
v 4.274055 10.247991 39.440174
v 4.274055 10.247991 39.533978
v 4.392992 10.120296 39.440174
v 4.392992 10.120296 39.533981
v 4.430865 9.951087 39.440174
v 4.430865 9.951087 39.533981
v 4.381819 9.731497 39.533978
v 4.381819 9.731497 39.440174
v 4.279042 9.607800 39.440174
v 4.279042 9.607800 39.533978
v 3.214214 9.362278 39.533978
v 3.214214 10.344476 39.533981
v 3.798015 10.344606 39.533978
v 3.798016 10.060702 39.533981
v 3.967882 10.003038 39.533978
v 4.089928 10.325862 39.533981
v 4.002452 9.880237 39.533978
v 3.943998 9.766453 39.533978
v 3.831225 9.726687 39.533978
v 3.214214 9.362278 39.440174
v 3.214214 10.344476 39.440174
v 4.002452 9.880237 39.440174
v 3.943998 9.766453 39.440174
v 3.967882 10.003038 39.440174
v 3.798015 10.344606 39.440174
v 4.089928 10.325862 39.440174
v 3.831225 9.726687 39.440174
v 3.798016 10.060702 39.440174
v 3.627787 9.708654 39.533978
v 3.627787 10.073314 39.533978
v 3.952578 9.756623 39.533978
v 3.833470 9.714624 39.533978
v 4.220670 8.883244 39.533978
v 4.648173 8.883244 39.533978
v 3.800035 10.072819 39.533981
v 4.087100 10.313895 39.533981
v 3.226337 8.883244 39.533978
v 3.226337 10.332355 39.533981
v 4.015412 9.878935 39.533978
v 4.418442 9.951084 39.533981
v 4.370625 9.736995 39.533978
v 3.797628 10.332484 39.533978
v 4.270951 9.617034 39.533978
v 3.226337 9.362278 39.533978
v 3.977823 10.012467 39.533978
v 4.124490 9.524891 39.533978
v 3.627776 8.883189 39.533978
v 4.266949 10.237833 39.533978
v 4.381879 10.114439 39.533981
v 3.770085 9.458800 39.533978
v 3.625082 9.458800 39.533978
v 3.625082 9.437791 39.533978
v 3.641649 9.437791 39.533978
v 3.643263 9.458800 39.533978
v 3.625082 8.870604 39.533978
v 3.641649 8.870604 39.533978
vn 0.0066 0.0090 0.9999
vn 0.2769 -0.6929 0.6657
vn 0.6916 -0.2761 0.6674
vn -0.0002 0.0111 0.9999
vn -0.0980 -0.6738 0.7324
vn -0.1735 -0.6641 0.7273
vn 0.0058 0.0095 0.9999
vn 0.7349 -0.0060 0.6782
vn 0.0040 -0.0104 0.9999
vn 0.2175 0.7210 0.6579
vn 0.0217 0.7163 0.6975
vn 0.0110 -0.0015 0.9999
vn 0.0096 0.0057 0.9999
vn -0.4153 0.6136 0.6715
vn 0.0095 -0.0056 0.9999
vn 0.0112 0.0001 0.9999
vn 0.7091 0.2483 0.6599
vn -0.0000 -0.0111 0.9999
vn -0.5835 0.5846 0.5637
vn -0.5838 -0.5641 0.5839
vn 0.0111 -0.0000 0.9999
vn -0.0123 -0.7077 0.7065
vn -0.0692 0.6749 0.7346
vn 0.2999 0.3121 0.9015
vn 0.0101 0.0046 0.9999
vn 0.1777 -0.7170 0.6740
vn 0.0023 0.0109 0.9999
vn -0.5477 -0.2992 0.7814
vn 0.0095 0.0058 0.9999
vn 0.2922 -0.2931 0.9103
vn 0.0111 0.0006 0.9999
vn -0.5507 0.2885 0.7832
vn 0.0086 0.0068 0.9999
vn -0.6584 0.0011 0.7526
vn 0.0005 0.0111 0.9999
vn 0.0105 0.0037 0.9999
vn 0.0006 -0.0111 0.9999
vn 0.0111 0.0011 0.9999
vn 0.0051 0.0099 0.9999
vn 0.0258 -0.7170 0.6966
vn 0.0085 0.0071 0.9999
vn 0.6199 0.6229 0.4772
vn -0.5731 0.7930 -0.2065
vn -0.1260 0.9920 -0.0079
vn 0.7037 0.7105 -0.0064
vn 0.6393 0.7121 -0.2901
vn 0.9510 0.3091 -0.0079
vn 0.9995 -0.0317 -0.0079
vn 0.9154 -0.4024 -0.0079
vn 0.6059 -0.7420 -0.2870
vn 0.2498 -0.9683 -0.0078
vn 0.0468 -0.9989 -0.0078
vn -0.0078 -0.9999 -0.0078
vn -0.7071 -0.7069 -0.0144
vn -0.7126 0.7015 -0.0140
vn 0.0397 0.9992 -0.0079
vn 0.2996 0.9540 -0.0079
vn -0.1317 -0.9913 -0.0077
vn -0.4708 -0.8503 -0.2353
vn 0.7021 -0.7120 -0.0061
vn -0.8849 -0.4657 -0.0077
vn -0.9998 0.0156 -0.0078
vn -0.8832 0.4690 -0.0078
vn 0.0094 -0.0059 0.9999
vn -0.5838 0.5837 0.5643
vn 0.0061 -0.0094 0.9999
vn -0.4553 -0.6045 0.6537
vn -0.5358 -0.0003 0.8443
vn -0.5838 -0.5837 0.5643
vn 0.5857 -0.5643 0.5818
vn 0.0111 0.0003 0.9999
vn 0.0188 0.7051 0.7088
vn -0.0109 0.0021 0.9999
vn 0.6279 -0.4225 0.6536
vn 0.7491 -0.0321 0.6617
vn -0.0066 0.0089 0.9999
vn -0.0109 0.0014 0.9999
vn 0.3097 -0.2903 0.9054
vn -0.0000 0.0111 0.9999
vn 0.0107 -0.0032 0.9999
vn 0.0056 -0.0097 0.9999
vn 0.2938 -0.2925 0.9100
vn -0.0083 0.0075 0.9999
vn 0.4066 -0.7108 0.5740
vn 0.0109 0.0025 0.9999
vn 0.1073 0.7195 0.6862
vn -0.0050 -0.0099 0.9999
vn -0.0060 -0.0094 0.9999
vn 0.0110 0.0014 0.9999
vn 0.4863 0.5646 0.6669
vn 0.1074 -0.7284 0.6767
vn -0.1007 -0.6752 0.7307
vn -0.0014 -0.0110 0.9999
vn -0.5668 0.4601 0.6834
vn 0.3005 0.3130 0.9010
vn 0.0029 0.0107 0.9999
vn 0.6651 0.3863 0.6391
vn -0.0760 0.6703 0.7382
vn -0.0047 0.0101 0.9999
vn 0.4930 0.8268 -0.2709
vn 0.1270 0.9919 -0.0079
vn 0.0079 0.9999 -0.0080
vn -0.7125 0.7015 -0.0134
vn 0.7028 -0.7113 -0.0072
vn -0.1555 -0.9878 -0.0078
vn 0.4832 -0.8457 -0.2266
vn 0.1556 -0.9878 -0.0078
vn 0.7102 -0.7040 -0.0055
vn -0.1503 0.9886 -0.0079
vn -0.5663 0.7664 -0.3032
vn 0.7047 0.7094 -0.0073
vn 0.8745 0.4850 -0.0079
vn 0.9984 -0.0555 -0.0079
vn 0.8344 -0.5510 -0.0079
vn -0.7070 -0.7070 -0.0151
vn 0.7018 -0.7123 -0.0128
vn 0.7026 -0.7116 -0.0037
vn 0.6546 -0.6761 0.3382
vn 0.7046 -0.7095 -0.0060
vn 0.7018 -0.7122 -0.0128
vn -0.5839 -0.5837 0.5643
vn 0.2919 0.3056 0.9063
vn 0.7032 -0.7109 -0.0053
vn 0.3043 -0.2908 0.9071
vn 0.6964 0.7176 -0.0077
vn 0.3925 -0.0671 0.9173
vn 0.9034 -0.4287 -0.0137
vn 0.9866 -0.1632 -0.0068
vn 0.7636 -0.3455 0.5454
vn -0.3444 -0.7081 0.6164
vn -0.4383 -0.8987 -0.0122
vn -0.4380 -0.8989 -0.0080
vn -0.2523 -0.5155 0.8189
vn 0.5585 0.7982 -0.2258
vn 0.5589 0.5440 0.6258
vn 0.8879 0.4599 -0.0079
vn 0.6696 0.3601 0.6496
vn 0.9999 -0.0079 -0.0079
vn 0.7432 -0.0084 0.6690
vn 0.6741 -0.3257 0.6630
vn 0.8944 -0.4472 -0.0078
vn 0.6501 -0.7598 -0.0078
vn 0.4936 -0.5565 0.6683
vn -0.9999 -0.0078 -0.0078
vn -0.7054 -0.0049 0.7088
vn -0.7125 0.7016 -0.0133
vn -0.5808 0.5804 0.5708
vn -0.5306 0.4952 0.6879
vn -0.9963 0.0856 -0.0078
vn -0.7414 0.6139 -0.2710
vn -0.5867 0.0593 0.8076
vn -0.7251 -0.6886 -0.0063
vn -0.4013 -0.3947 0.8266
vn 0.0357 0.7128 0.7005
vn 0.0238 0.9997 -0.0079
vn 0.2220 0.9750 -0.0079
vn 0.1653 0.7213 0.6726
vn -0.1136 0.6557 0.7464
vn -0.1900 0.9818 -0.0079
vn -0.1707 -0.9853 -0.0077
vn -0.1005 -0.6656 0.7396
vn 0.0006 0.0111 0.9999
vn 0.0094 0.0060 0.9999
vn 0.0108 -0.0024 0.9999
vn 0.0103 -0.0044 0.9999
vn 0.0058 -0.0095 0.9999
vn -0.0070 0.0086 0.9999
vn -0.0001 0.0111 0.9999
vn 0.0047 0.0101 0.9999
vn 0.0095 0.0051 0.9999
vn 0.0030 -0.0107 0.9999
vn 0.0004 -0.0111 0.9999
vn -0.0003 -0.0111 0.9999
vn -0.0053 0.0097 0.9999
vn 0.0069 0.0086 0.9999
vn -0.0071 0.0085 0.9999
vn 0.0025 -0.0108 0.9999
vn 0.0077 -0.0080 0.9999
vn 0.0111 -0.0010 0.9999
vn -0.0000 -0.0000 1.0000
vn 0.0069 0.0087 0.9999
vt 0.563888 0.301830
vt 0.563965 0.301758
vt 0.562500 0.300537
vt 0.558492 0.304438
vt 0.558594 0.304443
vt 0.558594 0.303467
vt 0.562462 0.300642
vt 0.561035 0.300293
vt 0.557269 0.303252
vt 0.557129 0.303223
vt 0.556641 0.304443
vt 0.563587 0.304431
vt 0.563078 0.303415
vt 0.562988 0.303467
vt 0.558201 0.301120
vt 0.559608 0.300645
vt 0.559570 0.300537
vt 0.556792 0.307261
vt 0.556641 0.307373
vt 0.564941 0.307373
vt 0.564825 0.307260
vt 0.564941 0.305908
vt 0.563477 0.304443
vt 0.563477 0.305176
vt 0.564803 0.303242
vt 0.564941 0.303223
vt 0.558492 0.303422
vt 0.559570 0.302734
vt 0.563590 0.305296
vt 0.558594 0.305176
vt 0.562575 0.302634
vt 0.562500 0.302734
vt 0.561038 0.302378
vt 0.561035 0.302490
vt 0.558443 0.305296
vt 0.561032 0.300407
vt 0.556790 0.304448
vt 0.564828 0.304452
vt 0.564828 0.305911
vt 0.564941 0.304443
vt 0.559513 0.302633
vt 0.558105 0.301025
vt 0.566406 0.313965
vt 0.568848 0.308594
vt 0.568848 0.313965
vt 0.566406 0.308594
vt 0.566406 0.305176
vt 0.568848 0.305176
vt 0.568848 0.309082
vt 0.566406 0.302734
vt 0.568848 0.302734
vt 0.566406 0.309082
vt 0.566406 0.316406
vt 0.568848 0.316406
vt 0.566406 0.322021
vt 0.568848 0.322021
vt 0.568848 0.330811
vt 0.566406 0.330811
vt 0.566406 0.323486
vt 0.568848 0.323486
vt 0.568848 0.316162
vt 0.566406 0.316162
vt 0.566406 0.308838
vt 0.568848 0.308838
vt 0.568848 0.301514
vt 0.566406 0.301514
vt 0.568848 0.333984
vt 0.566406 0.333984
vt 0.568848 0.309570
vt 0.566406 0.304199
vt 0.566406 0.309570
vt 0.568848 0.304199
vt 0.566406 0.300781
vt 0.568848 0.300781
vt 0.566406 0.314697
vt 0.568848 0.311523
vt 0.566406 0.311523
vt 0.568848 0.314697
vt 0.568848 0.327637
vt 0.566406 0.327637
vt 0.566406 0.292236
vt 0.568848 0.292236
vt 0.568848 0.307129
vt 0.566406 0.307129
vt 0.564838 0.314098
vt 0.556780 0.314098
vt 0.556641 0.314209
vt 0.558473 0.310215
vt 0.558594 0.310303
vt 0.559570 0.310059
vt 0.564941 0.314209
vt 0.564941 0.312012
vt 0.556789 0.311287
vt 0.556641 0.311279
vt 0.560967 0.308452
vt 0.561035 0.308350
vt 0.559570 0.307861
vt 0.561900 0.310319
vt 0.561900 0.312129
vt 0.562012 0.312012
vt 0.564818 0.312123
vt 0.558446 0.311260
vt 0.558446 0.312142
vt 0.558594 0.312012
vt 0.561421 0.309136
vt 0.561523 0.309082
vt 0.557269 0.310318
vt 0.557129 0.310303
vt 0.560151 0.310220
vt 0.559579 0.309938
vt 0.557226 0.309134
vt 0.557129 0.309082
vt 0.562012 0.310303
vt 0.558594 0.311279
vt 0.560673 0.311266
vt 0.560059 0.310303
vt 0.560678 0.312123
vt 0.560547 0.312012
vt 0.558164 0.308204
vt 0.558105 0.308105
vt 0.560547 0.311279
vt 0.559562 0.307984
vt 0.568848 0.324463
vt 0.566406 0.324463
vt 0.566406 0.319580
vt 0.568848 0.319580
vt 0.566406 0.305420
vt 0.568848 0.305420
vt 0.568848 0.290283
vt 0.568848 0.287109
vt 0.566406 0.287109
vt 0.566406 0.290283
vt 0.568848 0.294922
vt 0.566406 0.289551
vt 0.568848 0.294189
vt 0.566406 0.294189
vt 0.568848 0.289551
vt 0.566406 0.286377
vt 0.568848 0.286377
vt 0.566406 0.314209
vt 0.568848 0.314209
vt 0.568848 0.320068
vt 0.566406 0.320068
vt 0.566406 0.327148
vt 0.568848 0.327148
vt 0.566406 0.306641
vt 0.568848 0.296387
vt 0.568848 0.306641
vt 0.566406 0.296387
vt 0.566406 0.317383
vt 0.568848 0.317383
vt 0.568848 0.315918
vt 0.566406 0.315918
vt 0.568848 0.317139
vt 0.568848 0.305908
vt 0.566406 0.305908
vt 0.566406 0.317139
vt 0.568848 0.300293
vt 0.566406 0.291504
vt 0.568848 0.291504
vt 0.566406 0.300293
vt 0.568848 0.313721
vt 0.566406 0.313721
vt 0.568848 0.318848
vt 0.566406 0.318848
vt 0.566406 0.303711
vt 0.568848 0.303711
vt 0.566406 0.294678
vt 0.568848 0.294678
vt 0.566406 0.298096
vt 0.568848 0.298096
vt 0.566406 0.302490
vt 0.568848 0.302490
vt 0.568848 0.308350
vt 0.566406 0.308350
vt 0.566406 0.317871
vt 0.568848 0.317871
vt 0.568848 0.292969
vt 0.566406 0.290039
vt 0.566406 0.292969
vt 0.568848 0.290039
vt 0.566406 0.286865
vt 0.568848 0.286865
vt 0.568848 0.319336
vt 0.566406 0.319336
vt 0.566406 0.294434
vt 0.568848 0.294434
vt 0.568848 0.293945
vt 0.566406 0.293945
vt 0.568848 0.286133
vt 0.566406 0.286133
vt 0.558510 0.319655
vt 0.560547 0.319580
vt 0.558594 0.319580
vt 0.559593 0.317558
vt 0.560059 0.317871
vt 0.560153 0.317808
vt 0.560152 0.318582
vt 0.560654 0.319639
vt 0.564878 0.314342
vt 0.564941 0.316650
vt 0.558506 0.318595
vt 0.558594 0.318604
vt 0.560037 0.315732
vt 0.559082 0.315430
vt 0.559084 0.315494
vt 0.557184 0.317157
vt 0.556641 0.318604
vt 0.556724 0.318611
vt 0.561035 0.316162
vt 0.560059 0.315674
vt 0.564881 0.321715
vt 0.562500 0.321777
vt 0.564941 0.321777
vt 0.556724 0.321716
vt 0.562499 0.321715
vt 0.558594 0.317871
vt 0.558531 0.317823
vt 0.560985 0.316205
vt 0.561523 0.316895
vt 0.564882 0.319643
vt 0.564941 0.319580
vt 0.559570 0.317627
vt 0.561508 0.316990
vt 0.557657 0.316205
vt 0.557129 0.317139
vt 0.560059 0.318604
vt 0.558141 0.315730
vt 0.557617 0.316162
vt 0.556641 0.321777
vt 0.558105 0.315674
vt 0.562012 0.318848
vt 0.564877 0.316617
s 1
usemtl material.001
f 55/43/43 23/44/23 54/45/14
f 55/43/43 22/46/44 23/44/23
f 62/47/45 23/44/23 22/46/44
f 23/44/23 62/47/45 60/48/24
f 25/49/17 41/50/46 42/51/42
f 41/50/46 25/49/17 24/52/47
f 26/53/48 24/52/47 25/49/17
f 25/49/17 27/54/8 26/53/48
f 29/55/49 26/53/48 27/54/8
f 27/54/8 28/56/3 29/55/49
f 28/56/3 31/57/2 29/55/49
f 29/55/49 31/57/2 30/58/50
f 31/57/2 33/59/51 30/58/50
f 31/57/2 32/60/26 33/59/51
f 35/61/40 33/59/51 32/60/26
f 33/59/51 35/61/40 34/62/52
f 35/61/40 37/63/53 34/62/52
f 37/63/53 35/61/40 36/64/22
f 59/65/20 37/63/53 36/64/22
f 37/63/53 59/65/20 56/66/54
f 58/65/19 39/61/11 57/66/55
f 38/62/56 57/66/55 39/61/11
f 43/59/57 38/62/56 39/61/11
f 43/59/57 39/61/11 40/60/10
f 42/67/42 43/59/57 40/60/10
f 43/59/57 42/67/42 41/68/46
f 47/69/6 44/70/58 46/71/59
f 47/69/6 45/72/5 44/70/58
f 45/72/5 61/73/60 44/70/58
f 63/74/30 61/73/60 45/72/5
f 48/75/61 47/76/6 46/77/59
f 47/76/6 48/75/61 49/78/28
f 51/55/62 49/78/28 48/75/61
f 49/78/28 51/55/62 50/56/34
f 51/55/62 52/79/32 50/56/34
f 52/79/32 51/55/62 53/80/63
f 53/80/63 54/57/14 52/79/32
f 55/58/43 54/57/14 53/80/63
f 57/81/55 56/58/54 59/57/20
f 59/57/20 58/82/19 57/81/55
f 62/58/45 63/83/30 60/57/24
f 63/83/30 62/58/45 61/84/60
f 93/58/100 84/123/86 94/57/90
f 93/58/100 83/124/101 84/123/86
f 85/125/102 84/123/86 83/124/101
f 84/123/86 85/125/102 86/126/72
f 85/125/102 104/127/103 86/126/72
f 105/128/65 86/126/72 104/127/103
f 87/129/92 109/130/82 107/131/104
f 87/129/92 107/131/104 88/132/105
f 103/133/67 87/129/92 88/132/105
f 89/123/91 101/58/106 102/57/84
f 101/58/106 89/123/91 90/124/107
f 89/123/91 115/54/78 90/124/107
f 113/53/108 90/124/107 115/54/78
f 91/134/109 118/135/94 116/136/110
f 118/135/94 91/134/109 92/137/98
f 91/134/109 108/138/111 92/137/98
f 108/138/111 106/139/95 92/137/98
f 94/69/90 96/140/112 93/71/100
f 96/140/112 94/69/90 95/141/97
f 98/142/75 96/140/112 95/141/97
f 96/140/112 98/142/75 97/143/113
f 99/144/114 97/143/113 98/142/75
f 98/142/75 100/145/74 99/144/114
f 100/145/74 101/58/106 99/144/114
f 102/57/84 101/58/106 100/145/74
f 104/81/103 110/58/115 111/57/69
f 111/57/69 105/82/65 104/81/103
f 108/146/111 109/147/82 106/148/95
f 109/147/82 108/146/111 107/149/104
f 114/61/70 110/47/115 112/62/116
f 114/61/70 111/48/69 110/47/115
f 113/150/108 114/57/70 112/58/116
f 115/151/78 114/57/70 113/150/108
f 119/152/117 120/57/118 121/153/119
f 121/153/119 120/57/118 122/58/120
f 120/154/118 123/155/121 124/156/115
f 120/154/118 124/156/115 122/157/120
f 125/158/122 126/159/123 127/160/124
f 126/159/123 125/158/122 128/161/125
f 129/162/126 130/58/127 131/163/128
f 130/58/127 129/162/126 132/57/129
f 132/57/129 133/164/130 134/165/131
f 132/57/129 134/165/131 130/58/127
f 135/84/132 134/165/131 136/83/133
f 136/83/133 134/165/131 133/164/130
f 121/166/119 136/83/133 119/167/117
f 136/83/133 121/166/119 135/84/132
f 137/168/134 138/169/135 139/170/136
f 138/169/135 140/171/137 139/170/136
f 141/172/138 139/170/136 140/171/137
f 140/171/137 142/173/139 141/172/138
f 142/173/139 143/174/140 141/172/138
f 141/172/138 143/174/140 144/175/141
f 144/175/141 143/174/140 145/77/142
f 143/174/140 146/76/143 145/77/142
f 146/76/143 131/163/128 145/77/142
f 131/163/128 146/76/143 129/162/126
f 156/176/144 124/58/115 123/57/121
f 123/57/121 147/177/145 156/176/144
f 157/81/146 156/176/144 147/177/145
f 147/177/145 148/82/147 157/81/146
f 154/178/148 158/179/149 159/180/150
f 158/179/149 154/178/148 153/181/151
f 153/181/151 160/182/152 158/179/149
f 160/182/152 153/181/151 151/183/153
f 148/72/147 149/184/154 157/70/146
f 161/185/155 157/70/146 149/184/154
f 162/144/156 161/185/155 149/184/154
f 162/144/156 149/184/154 152/145/157
f 138/57/135 162/144/156 152/145/157
f 162/144/156 138/57/135 137/58/134
f 155/160/158 128/138/125 125/139/122
f 128/138/125 155/160/158 163/159/159
f 159/186/150 163/159/159 155/160/158
f 159/186/150 155/160/158 154/187/148
f 151/188/153 164/132/160 160/189/152
f 151/188/153 150/129/161 164/132/160
f 127/190/124 164/132/160 150/129/161
f 164/132/160 127/190/124 126/191/123
usemtl R_Emissive.002
f 13/1/1 31/2/2 28/3/3
f 2/4/4 45/5/5 47/6/6
f 1/7/7 28/3/3 27/8/8
f 21/9/9 40/10/10 39/11/11
f 11/12/12 18/13/13 54/14/14
f 20/15/15 7/16/16 25/17/17
f 8/18/18 58/19/19 59/20/20
f 10/21/21 59/20/20 36/22/22
f 11/12/12 23/23/23 60/24/24
f 13/1/1 12/25/25 32/26/26
f 15/27/27 47/6/6 49/28/28
f 17/29/29 60/24/24 63/30/30
f 18/13/13 19/31/31 52/32/32
f 6/33/33 50/34/34 52/32/32
f 2/4/4 16/35/35 63/30/30
f 7/16/16 3/36/36 27/8/8
f 8/18/18 4/37/37 39/11/11
f 5/38/38 9/39/39 36/22/22
f 12/25/25 5/38/38 35/40/40
f 6/33/33 14/41/41 49/28/28
f 20/15/15 42/42/42 40/10/10
f 13/1/1 28/3/3 1/7/7
f 2/4/4 47/6/6 15/27/27
f 1/7/7 27/8/8 3/36/36
f 21/9/9 39/11/11 4/37/37
f 6/33/33 52/32/32 19/31/31
f 2/4/4 63/30/30 45/5/5
f 7/16/16 27/8/8 25/17/17
f 8/18/18 39/11/11 58/19/19
f 5/38/38 36/22/22 35/40/40
f 12/25/25 35/40/40 32/26/26
f 6/33/33 49/28/28 50/34/34
f 11/12/12 54/14/14 23/23/23
f 20/15/15 25/17/17 42/42/42
f 8/18/18 59/20/20 10/21/21
f 10/21/21 36/22/22 9/39/39
f 11/12/12 60/24/24 17/29/29
f 13/1/1 32/26/26 31/2/2
f 15/27/27 49/28/28 14/41/41
f 17/29/29 63/30/30 16/35/35
f 18/13/13 52/32/32 54/14/14
f 20/15/15 40/10/10 21/9/9
f 166/192/162 125/193/122 127/194/124
f 175/195/163 154/196/148 167/197/164
f 168/198/165 125/193/122 165/199/166
f 170/200/167 133/201/130 132/91/129
f 171/202/168 127/194/124 150/203/161
f 177/204/169 142/205/139 176/206/170
f 172/207/171 149/208/154 178/209/172
f 177/204/169 146/210/143 143/211/140
f 173/212/21 147/213/145 123/214/121
f 174/215/173 147/213/145 180/216/18
f 171/202/168 151/217/153 181/218/174
f 179/219/175 129/220/126 146/210/143
f 183/221/176 123/214/121 120/222/118
f 175/195/163 151/217/153 153/223/151
f 170/200/167 129/220/126 182/224/177
f 184/225/178 152/226/157 172/207/171
f 168/198/165 154/196/148 155/227/158
f 185/228/179 138/229/135 184/225/178
f 174/215/173 149/208/154 148/230/147
f 185/228/179 142/205/139 140/231/137
f 136/232/133 190/232/180 189/232/180
f 169/233/181 136/232/133 133/201/130
f 188/232/180 192/232/180 189/232/180
f 189/232/180 187/232/180 188/232/180
f 166/192/162 165/199/166 125/193/122
f 175/195/163 153/223/151 154/196/148
f 168/198/165 155/227/158 125/193/122
f 170/200/167 169/233/181 133/201/130
f 171/202/168 166/192/162 127/194/124
f 177/204/169 143/211/140 142/205/139
f 172/207/171 152/226/157 149/208/154
f 177/204/169 179/219/175 146/210/143
f 173/212/21 180/216/18 147/213/145
f 174/215/173 148/230/147 147/213/145
f 171/202/168 150/203/161 151/217/153
f 179/219/175 182/224/177 129/220/126
f 183/221/176 173/212/21 123/214/121
f 175/195/163 181/218/174 151/217/153
f 170/200/167 132/91/129 129/220/126
f 184/225/178 138/229/135 152/226/157
f 168/198/165 167/197/164 154/196/148
f 185/228/179 140/231/137 138/229/135
f 174/215/173 178/209/172 149/208/154
f 185/228/179 176/206/170 142/205/139
f 136/232/133 186/232/180 190/232/180
f 169/233/181 186/232/180 136/232/133
f 188/232/180 191/232/180 192/232/180
f 189/232/180 190/232/180 187/232/180
usemtl P_Emissive
f 64/85/21 65/86/64 105/87/65
f 75/88/66 103/89/67 117/90/68
f 64/85/21 111/91/69 114/92/70
f 65/86/64 69/93/71 86/94/72
f 68/95/73 100/96/74 98/97/75
f 73/98/76 67/99/77 115/100/78
f 66/101/79 114/92/70 115/100/78
f 74/102/80 77/103/81 109/104/82
f 68/95/73 72/105/83 102/106/84
f 71/107/85 84/108/86 86/94/72
f 76/109/87 70/110/88 117/90/68
f 78/111/89 94/112/90 84/108/86
f 72/105/83 73/98/76 89/113/91
f 74/102/80 87/114/92 103/89/67
f 79/115/93 76/109/87 118/116/94
f 80/117/39 106/118/95 109/104/82
f 81/119/96 95/120/97 94/112/90
f 79/115/93 92/121/98 106/118/95
f 81/119/96 82/122/99 98/97/75
f 64/85/21 105/87/65 111/91/69
f 75/88/66 117/90/68 70/110/88
f 64/85/21 114/92/70 66/101/79
f 65/86/64 86/94/72 105/87/65
f 68/95/73 98/97/75 82/122/99
f 73/98/76 115/100/78 89/113/91
f 66/101/79 115/100/78 67/99/77
f 74/102/80 109/104/82 87/114/92
f 68/95/73 102/106/84 100/96/74
f 71/107/85 86/94/72 69/93/71
f 76/109/87 117/90/68 118/116/94
f 78/111/89 84/108/86 71/107/85
f 72/105/83 89/113/91 102/106/84
f 74/102/80 103/89/67 75/88/66
f 79/115/93 118/116/94 92/121/98
f 80/117/39 109/104/82 77/103/81
f 81/119/96 94/112/90 78/111/89
f 79/115/93 106/118/95 80/117/39
f 81/119/96 98/97/75 95/120/97
